<?xml version="1.0" encoding="UTF-8" standalone="no"?>
<!-- Created with Inkscape (http://www.inkscape.org/) -->

<svg
   xmlns:dc="http://purl.org/dc/elements/1.1/"
   xmlns:cc="http://creativecommons.org/ns#"
   xmlns:rdf="http://www.w3.org/1999/02/22-rdf-syntax-ns#"
   xmlns:svg="http://www.w3.org/2000/svg"
   xmlns="http://www.w3.org/2000/svg"
   version="1.1"
   width="60.890881"
   height="137.8867"
   viewBox="0 0 60.89088 137.8867"
   id="Layer_1"
   xml:space="preserve"><metadata
   id="metadata3039"><rdf:RDF><cc:Work
       rdf:about=""><dc:format>image/svg+xml</dc:format><dc:type
         rdf:resource="http://purl.org/dc/dcmitype/StillImage" /><dc:title></dc:title></cc:Work></rdf:RDF></metadata><defs
   id="defs3037" />
<path
   d="m 53.652881,31.846991 c -2.195,-4.122 -4.617,-8.129 -6.755,-12.279 -1.527,-2.968 -2.99,-6.148 -3.579,-9.439 2.017,-1.2360005 2.758,-3.8600005 2.349,-6.1380005 -0.476,-2.629 -3.083,-3.9909999696599 -5.633,-3.9909999696599 -3.186,0 -6.368,0 -9.551,0 -3.112,0 -6.225,0 -9.333,0 -2.56,0 -4.949,1.0419999696599 -5.729,3.5849999696599 -0.722,2.355 0.083,5.234 2.224,6.5470005 -0.987,5.764 -4.444,11.174 -7.285,16.213 -3.7319997,6.614 -7.4709997,13.353 -9.2699997,20.718 -1.49200004,6.109 -1.02000004,12.618 -1.02000004,18.852 0,17.533 0,35.070999 0,52.606999 0,2.319 -0.048,4.566 0.499,6.86 1.70300004,7.135 8.65300004,12.049 16.12999974,12.369 6.949,0.3 13.995,0.009 20.958,0.009 5.575,0 10.988,0.294 15.842,-2.885 4.745,-3.109 7.391,-8.292 7.391,-13.74 0,-6.103 0,-12.208 0,-18.312 0,-15.784999 0,-31.568999 0,-47.347999 0,-8.405 -3.314,-16.25 -7.238,-23.628 z m 2.158,93.190999 c -0.962,3.15 -3.406,5.652 -6.4,7.166 -2.205,1.112 -4.599,1.243 -7.023,1.243 -7.592,0 -15.181,0 -22.77,0 -2.284,0 -4.425,0.013 -6.633,-0.668 -3.2659997,-1.003 -5.7929997,-3.46 -7.2789997,-6.349 -1.211,-2.336 -1.122,-4.869 -1.122,-7.384 0,-7.736 0,-15.475 0,-23.207999 0,-9.659 0,-19.319 0,-28.978 0,-5.822 -0.527,-12.03 0.658,-17.772 1.582,-7.64 5.6239997,-14.551 9.4459997,-21.338 3.361,-5.966 6.997,-12.177 7.665,-19.0410005 0.086,-0.86 -0.744,-1.953 -1.658,-2.08 -1.153,-0.16 -1.572,-2.32 -0.342,-2.32 1.246,0 2.492,0 3.741,0 2.132,0 4.26,0 6.391,0 2.022,0 4.052,0 6.077,0 1.316,0 2.64,0 3.956,0 1.313,0 0.972,2.15 -0.249,2.32 -0.218,0.035 -0.422,0.108 -0.601,0.211 -0.671,0.294 -1.147,0.917 -1.055,1.869 0.007,0.032 0.01,0.067 0.013,0.102 0.003,0.131 0.02,0.252 0.045,0.377 0.754,6.3910005 4.042,12.2090005 7.177,17.7980005 3.678,6.557 7.509,13.088 9.458,20.344 1.604,5.984 1.076,12.455 1.076,18.587 0,17.532 0,35.070999 0,52.605999 0,2.213 0.087,4.351 -0.571,6.515 z"
   id="path3033"
   style="fill:#ffffff" />
</svg>