<?xml version="1.0" encoding="utf-8"?>
<!-- Generator: Adobe Illustrator 14.0.0, SVG Export Plug-In . SVG Version: 6.00 Build 43363)  -->
<!DOCTYPE svg PUBLIC "-//W3C//DTD SVG 1.1//EN" "http://www.w3.org/Graphics/SVG/1.1/DTD/svg11.dtd">
<svg version="1.1" id="Layer_1" xmlns="http://www.w3.org/2000/svg" xmlns:xlink="http://www.w3.org/1999/xlink" x="0px" y="0px"
	 width="841.89px" height="595.28px" viewBox="0 0 841.89 595.28" enable-background="new 0 0 841.89 595.28" xml:space="preserve">
<path d="M92.899,64.396c-2.195-4.122-4.617-8.129-6.755-12.279c-1.527-2.968-2.99-6.148-3.579-9.439
	c2.017-1.236,2.758-3.86,2.349-6.138c-0.476-2.629-3.083-3.991-5.633-3.991c-3.186,0-6.368,0-9.551,0c-3.112,0-6.225,0-9.333,0
	c-2.56,0-4.949,1.042-5.729,3.585c-0.722,2.355,0.083,5.234,2.224,6.547c-0.987,5.764-4.444,11.174-7.285,16.213
	c-3.732,6.614-7.471,13.353-9.27,20.718c-1.492,6.109-1.02,12.618-1.02,18.852c0,17.533,0,35.071,0,52.607
	c0,2.319-0.048,4.566,0.499,6.86c1.703,7.135,8.653,12.049,16.13,12.369c6.949,0.3,13.995,0.009,20.958,0.009
	c5.575,0,10.988,0.294,15.842-2.885c4.745-3.109,7.391-8.292,7.391-13.74c0-6.103,0-12.208,0-18.312c0-15.785,0-31.569,0-47.348
	C100.137,79.619,96.823,71.774,92.899,64.396z M95.057,157.587c-0.962,3.15-3.406,5.652-6.4,7.166
	c-2.205,1.112-4.599,1.243-7.023,1.243c-7.592,0-15.181,0-22.77,0c-2.284,0-4.425,0.013-6.633-0.668
	c-3.266-1.003-5.793-3.46-7.279-6.349c-1.211-2.336-1.122-4.869-1.122-7.384c0-7.736,0-15.475,0-23.208c0-9.659,0-19.319,0-28.978
	c0-5.822-0.527-12.03,0.658-17.772c1.582-7.64,5.624-14.551,9.446-21.338c3.361-5.966,6.997-12.177,7.665-19.041
	c0.086-0.86-0.744-1.953-1.658-2.08c-1.153-0.16-1.572-2.32-0.342-2.32c1.246,0,2.492,0,3.741,0c2.132,0,4.26,0,6.391,0
	c2.022,0,4.052,0,6.077,0c1.316,0,2.64,0,3.956,0c1.313,0,0.972,2.15-0.249,2.32c-0.218,0.035-0.422,0.108-0.601,0.211
	c-0.671,0.294-1.147,0.917-1.055,1.869c0.007,0.032,0.01,0.067,0.013,0.102c0.003,0.131,0.02,0.252,0.045,0.377
	c0.754,6.391,4.042,12.209,7.177,17.798c3.678,6.557,7.509,13.088,9.458,20.344c1.604,5.984,1.076,12.455,1.076,18.587
	c0,17.532,0,35.071,0,52.606C95.628,153.285,95.715,155.423,95.057,157.587z"/>
</svg>
